<svg xmlns="http://www.w3.org/2000/svg" viewBox="0 0 512 512"><path d="M437.02 74.98C388.667 26.629 324.38 0 256 0S123.333 26.629 74.98 74.98C26.629 123.333 0 187.62 0 256s26.629 132.667 74.98 181.02C123.333 485.371 187.62 512 256 512c46.813 0 92.617-12.758 132.462-36.893 9.447-5.724 12.467-18.022 6.744-27.469-5.724-9.449-18.022-12.468-27.469-6.744C334.144 461.244 295.505 472 256 472c-119.103 0-216-96.897-216-216S136.897 40 256 40s216 96.897 216 216c0 42.589-12.665 84.044-36.626 119.884-6.139 9.182-3.672 21.603 5.51 27.742 9.183 6.14 21.604 3.672 27.742-5.51C497.002 355.674 512 306.53 512 256c0-68.38-26.629-132.667-74.98-181.02z"/><path d="M331 293c-11.046 0-20 8.954-20 20 0 30.327-24.673 55-55 55s-55-24.673-55-55c0-11.046-8.954-20-20-20s-20 8.954-20 20c0 52.383 42.617 95 95 95s95-42.617 95-95c0-11.046-8.954-20-20-20zm14-142c-27.57 0-50 22.43-50 50 0 11.046 8.954 20 20 20s20-8.954 20-20c0-5.514 4.486-10 10-10s10 4.486 10 10c0 11.046 8.954 20 20 20s20-8.954 20-20c0-27.57-22.43-50-50-50zm-177 0c-27.57 0-50 22.43-50 50 0 11.046 8.954 20 20 20s20-8.954 20-20c0-5.514 4.486-10 10-10s10 4.486 10 10c0 11.046 8.954 20 20 20s20-8.954 20-20c0-27.57-22.43-50-50-50z"/></svg>